<?xml version="1.0" encoding="UTF-8" standalone="no"?>
<svg
   xmlns:dc="http://purl.org/dc/elements/1.1/"
   xmlns:cc="http://creativecommons.org/ns#"
   xmlns:rdf="http://www.w3.org/1999/02/22-rdf-syntax-ns#"
   xmlns:svg="http://www.w3.org/2000/svg"
   xmlns="http://www.w3.org/2000/svg"
   xmlns:xlink="http://www.w3.org/1999/xlink"
   xmlns:sodipodi="http://sodipodi.sourceforge.net/DTD/sodipodi-0.dtd"
   xmlns:inkscape="http://www.inkscape.org/namespaces/inkscape"
   inkscape:version="1.0 (4035a4f, 2020-05-01)"
   sodipodi:docname="internetarchive_icon.svg"
   id="svg861"
   version="1.1"
   height="31.08"
   width="107.042">
  <metadata
     id="metadata865">
    <rdf:RDF>
      <cc:Work
         rdf:about="">
        <dc:format>image/svg+xml</dc:format>
        <dc:type
           rdf:resource="http://purl.org/dc/dcmitype/StillImage" />
        <dc:title></dc:title>
      </cc:Work>
    </rdf:RDF>
  </metadata>
  <sodipodi:namedview
     inkscape:current-layer="svg861"
     inkscape:window-maximized="0"
     inkscape:window-y="23"
     inkscape:window-x="0"
     inkscape:cy="15.55"
     inkscape:cx="53.52"
     inkscape:zoom="5.5666667"
     fit-margin-bottom="0"
     fit-margin-right="0"
     fit-margin-left="0"
     fit-margin-top="0"
     showgrid="false"
     id="namedview863"
     inkscape:window-height="917"
     inkscape:window-width="1668"
     inkscape:pageshadow="2"
     inkscape:pageopacity="0"
     guidetolerance="10"
     gridtolerance="10"
     objecttolerance="10"
     borderopacity="1"
     bordercolor="#666666"
     pagecolor="#ffffff" />
  <path
     id="path833"
     d="m 37.86,26.237 -0.855,-2.37 H 34.1 l -0.855,2.37 h -0.706 l 2.267,-6.2 C 34.852,19.923 35,19.467 35,19.365 c 0,-0.48 -0.524,-0.48 -0.877,-0.535 v -0.25 h 2.142 l 2.78,7.668 H 37.86 Z m -2.347,-6.232 -1.22,3.327 h 2.518 z m 12.107,6.232 -2.017,-3.543 h -0.706 v 3.543 h -1.253 v -6.12 c 0,-1.094 0,-1.14 -1.082,-1.3 v -0.25 h 2.928 c 1.38,0 3.088,0.296 3.088,2.04 0,1.15 -0.66,1.7 -1.743,1.88 l 2.097,3.75 h -1.3 z m -1.96,-7.133 c -0.82,0 -0.763,0.308 -0.763,1.025 v 2.028 h 0.65 c 1,0 1.777,-0.365 1.777,-1.48 0,-1.128 -0.58,-1.572 -1.663,-1.572 z m 10.525,7.246 c -2.62,0 -3.36,-1.698 -3.36,-4.056 0,-2.2 0.73,-3.76 3.18,-3.76 0.775,0 1.55,0.103 2.28,0.342 l 0.068,1.903 h -0.33 a 1.69,1.69 0 0 0 -0.239,-0.695 c -0.353,-0.615 -0.946,-1.003 -1.664,-1.003 -1.72,0 -1.948,1.9 -1.948,3.213 0,1.413 0.433,3.418 2.2,3.418 0.752,0 1.38,-0.148 1.994,-0.58 v 0.786 c -0.718,0.32 -1.402,0.433 -2.188,0.433 z m 11.56,-0.113 V 22.51 h -3.1 v 3.726 h -1.253 v -6.164 c 0,-1 -0.182,-1.014 -1.14,-1.117 v -0.25 l 2.393,-0.262 v 3.532 h 3.1 V 18.57 h 1.253 v 7.668 h -1.253 z m 5.657,0 v -0.285 c 0.855,0 0.97,-0.228 0.97,-1.06 v -4.9 c 0,-0.832 -0.114,-1.06 -0.97,-1.06 V 18.65 h 3.2 v 0.285 c -0.854,0 -0.968,0.24 -0.968,1.06 v 4.9 c 0,0.82 0.114,1.06 0.968,1.06 v 0.285 z m 11.513,0 h -1 l -2.233,-6.2 c -0.342,-0.957 -0.4,-1.025 -1.38,-1.208 v -0.25 h 2.2 l 2.233,6.244 h 0.023 l 2.176,-6.244 h 0.74 z m 11.775,0 h -4.546 v -6.12 c 0,-1.094 -0.01,-1.128 -1.083,-1.3 v -0.25 h 5.459 l 0.034,1.686 h -0.32 c 0,-0.855 -0.422,-1.15 -1.23,-1.15 h -0.9 c -0.524,0 -0.718,0.01 -0.718,0.592 v 2.267 h 1.38 c 0.65,0 0.832,-0.296 0.934,-0.877 h 0.32 v 2.393 H 95.7 c 0,-0.638 -0.273,-0.98 -0.934,-0.98 h -1.38 v 2.54 c 0,0.627 0.137,0.66 0.718,0.66 h 1.265 c 0.775,0 0.968,-0.387 1.025,-1.117 h 0.32 z m -64.083,-10.4 v -0.285 c 0.854,0 0.968,-0.228 0.968,-1.06 v -4.9 c 0,-0.832 -0.114,-1.06 -0.968,-1.06 V 8.25 h 3.2 v 0.285 c -0.855,0 -0.97,0.24 -0.97,1.06 v 4.9 c 0,0.82 0.114,1.06 0.97,1.06 v 0.285 z" />
  <use
     transform="translate(-6.48,-14.45)"
     height="100%"
     width="100%"
     y="0"
     x="0"
     id="use835"
     xlink:href="#A" />
  <use
     transform="translate(-6.48,-14.45)"
     height="100%"
     width="100%"
     y="0"
     x="0"
     id="use837"
     xlink:href="#B" />
  <use
     transform="translate(-6.48,-14.45)"
     height="100%"
     width="100%"
     y="0"
     x="0"
     id="use839"
     xlink:href="#C" />
  <path
     id="path841"
     d="m 75.014,15.838 -2.017,-3.543 h -0.706 v 3.543 H 71.038 V 9.72 c 0,-1.094 0,-1.14 -1.082,-1.3 V 8.17 h 2.928 c 1.38,0 3.088,0.296 3.088,2.04 0,1.15 -0.66,1.7 -1.743,1.88 l 2.096,3.75 h -1.3 z m -1.96,-7.132 c -0.82,0 -0.763,0.308 -0.763,1.025 v 2.028 h 0.65 c 1,0 1.777,-0.365 1.777,-1.48 0,-1.128 -0.58,-1.572 -1.663,-1.572 z" />
  <use
     transform="translate(-6.48,-14.45)"
     height="100%"
     width="100%"
     y="0"
     id="use843"
     x="40.596001"
     xlink:href="#A" />
  <use
     transform="translate(-6.48,-14.45)"
     height="100%"
     width="100%"
     y="0"
     id="use845"
     x="31.082001"
     xlink:href="#C" />
  <use
     transform="translate(-6.48,-14.45)"
     height="100%"
     width="100%"
     y="0"
     id="use847"
     x="50.326"
     xlink:href="#B" />
  <path
     id="path849"
     d="m 0,29.68 h 27.477 v 1.4 H 0 Z m 1.082,-2.708 h 25.363 v 1.95 H 1.082 Z M 0.92,4.752 h 25.228 v 2.7 H 0.92 Z M 13.534,3.94 h 12.45 L 26.744,3.1 13.544,0 0.344,3.1 1.104,3.94 Z M 4.56,16.05 4.452,12.058 4.252,8.301 C 4.247,8.193 4.202,8.169 4.112,8.151 A 5.38,5.38 0 0 0 2.998,8.031 C 2.624,8.029 2.253,8.069 1.884,8.151 c -0.1,0.02 -0.136,0.043 -0.14,0.15 l -0.2,3.757 -0.094,3.992 0.01,2.83 0.082,3.14 0.177,3.365 0.05,0.638 a 5.15,5.15 0 0 0 1.235,0.175 5.15,5.15 0 0 0 1.235,-0.175 l 0.05,-0.638 0.177,-3.365 0.082,-3.14 0.01,-2.83 z m 6.868,0 -0.108,-3.992 -0.2,-3.757 C 11.115,8.193 11.07,8.169 10.98,8.151 A 5.38,5.38 0 0 0 9.866,8.031 C 9.492,8.029 9.121,8.069 8.752,8.151 c -0.1,0.02 -0.136,0.043 -0.14,0.15 l -0.2,3.757 -0.092,3.992 v 2.83 l 0.082,3.14 0.177,3.365 0.05,0.638 a 5.15,5.15 0 0 0 1.235,0.175 5.15,5.15 0 0 0 1.235,-0.175 l 0.05,-0.638 0.177,-3.365 0.082,-3.14 0.01,-2.83 z" />
  <use
     transform="translate(-6.48,-14.45)"
     height="100%"
     width="100%"
     y="0"
     x="0"
     id="use851"
     xlink:href="#D" />
  <use
     transform="translate(-6.48,-14.45)"
     height="100%"
     width="100%"
     y="0"
     id="use853"
     x="6.7059999"
     xlink:href="#D" />
  <defs
     id="defs859">
    <path
       d="m 51.608,30.288 -3.76,-6.483 h -0.023 v 6.483 h -0.718 v -6.2 c 0,-1.07 -0.17,-1.025 -1.14,-1.208 v -0.25 h 2.404 l 3.6,6.198 h 0.023 V 22.62 h 0.718 v 7.668 z"
       id="A" />
    <path
       d="m 62.876,24.306 c 0,-0.9 -0.387,-1.15 -1.242,-1.15 h -0.775 v 7.132 H 59.606 V 23.156 H 58.82 c -0.866,0 -1.162,0.25 -1.23,1.117 h -0.32 l 0.046,-1.652 h 5.834 l 0.046,1.686 z"
       id="B" />
    <path
       d="M 72.322,30.288 H 67.776 V 24.17 c 0,-1.094 -0.01,-1.128 -1.082,-1.3 v -0.25 h 5.458 l 0.034,1.686 h -0.32 c 0,-0.855 -0.422,-1.15 -1.23,-1.15 h -0.9 c -0.524,0 -0.718,0.01 -0.718,0.592 v 2.267 h 1.38 c 0.65,0 0.832,-0.296 0.934,-0.877 h 0.32 v 2.393 h -0.32 c 0,-0.638 -0.273,-0.98 -0.934,-0.98 h -1.38 v 2.54 c 0,0.627 0.137,0.66 0.718,0.66 H 71 c 0.775,0 0.968,-0.387 1.025,-1.117 h 0.32 z"
       id="C" />
    <path
       d="m 25.874,30.5 -0.108,-3.992 -0.2,-3.757 c -0.005,-0.108 -0.05,-0.132 -0.14,-0.15 a 5.25,5.25 0 0 0 -1.114,-0.119 c -0.373,0.001 -0.745,0.038 -1.114,0.12 -0.1,0.02 -0.136,0.043 -0.14,0.15 l -0.2,3.757 -0.108,3.992 0.01,2.83 0.082,3.14 0.177,3.365 0.05,0.638 a 5.15,5.15 0 0 0 1.235,0.175 5.15,5.15 0 0 0 1.235,-0.175 l 0.05,-0.638 0.177,-3.365 0.082,-3.14 0.01,-2.83 z"
       id="D" />
  </defs>
</svg>
